<?xml version="1.0" encoding="UTF-8" standalone="no"?>
<!DOCTYPE svg PUBLIC "-//W3C//DTD SVG 1.1//EN" "http://www.w3.org/Graphics/SVG/1.1/DTD/svg11.dtd">
<svg id="svg" version="1.1" xmlns="http://www.w3.org/2000/svg" xmlns:xlink="http://www.w3.org/1999/xlink" width="400" height="480.1678908709339" viewBox="0, 0, 400,480.1678908709339">
  <g id="svgg">
    <path id="path0" d="M166.000 5.249 C 163.772 6.138,162.032 8.474,162.857 9.469 C 163.661 10.437,163.471 78.890,162.647 85.052 C 161.595 92.923,159.947 96.708,153.339 106.438 C 151.308 109.428,148.899 113.298,147.986 115.038 C 147.073 116.777,146.093 118.470,145.808 118.800 C 145.153 119.558,142.800 124.240,142.800 124.785 C 142.800 125.009,141.995 126.448,141.011 127.983 C 140.027 129.518,138.701 131.725,138.065 132.887 C 135.085 138.331,133.634 140.811,132.702 142.053 C 132.146 142.794,131.330 144.120,130.887 145.000 C 130.445 145.880,129.415 147.590,128.597 148.800 C 127.780 150.010,125.762 153.700,124.113 157.000 C 122.464 160.300,119.784 165.006,118.158 167.459 C 116.531 169.911,114.633 173.061,113.941 174.459 C 113.248 175.856,112.213 177.705,111.640 178.566 C 111.068 179.427,110.240 180.728,109.800 181.458 C 109.360 182.188,108.331 183.870,107.514 185.197 C 106.697 186.524,105.842 188.302,105.614 189.147 C 105.047 191.252,102.710 194.202,101.116 194.825 C 99.738 195.363,88.328 195.708,78.000 195.524 C 64.866 195.291,7.297 195.429,6.344 195.697 C 4.692 196.161,4.721 195.606,4.509 230.600 C 4.314 262.581,4.334 263.833,5.053 264.711 L 5.800 265.623 30.200 265.827 C 53.527 266.022,57.189 266.211,57.833 267.253 C 58.542 268.401,57.993 271.306,56.648 273.524 C 55.889 274.776,54.211 277.960,52.919 280.600 C 51.627 283.240,49.890 286.284,49.059 287.365 C 48.228 288.446,47.091 290.246,46.534 291.365 C 45.976 292.484,44.937 294.300,44.225 295.400 C 41.603 299.449,38.583 304.724,35.984 309.796 C 32.588 316.422,29.352 322.105,27.676 324.385 C 26.233 326.349,22.720 332.392,18.718 339.800 C 15.343 346.045,13.944 348.413,10.846 353.120 C 5.268 361.592,4.978 364.918,9.878 364.204 C 10.935 364.050,44.740 363.850,85.000 363.760 L 158.200 363.596 159.870 364.474 C 163.106 366.173,163.184 367.659,163.157 427.069 C 163.144 456.681,163.270 470.184,163.565 470.734 C 164.093 471.722,167.329 473.021,168.069 472.543 C 168.361 472.354,182.756 472.200,200.057 472.200 C 235.932 472.200,232.951 472.516,233.332 468.671 C 233.445 467.532,233.607 444.550,233.692 417.600 C 233.860 364.323,233.762 366.432,236.154 364.608 L 237.476 363.600 310.532 363.600 C 366.848 363.600,384.008 363.712,385.417 364.089 C 387.819 364.731,389.390 363.984,389.420 362.185 C 389.430 361.533,389.563 360.640,389.715 360.200 C 389.885 359.706,389.724 358.997,389.295 358.348 C 388.913 357.769,387.895 356.239,387.034 354.948 C 386.173 353.657,384.373 350.434,383.034 347.786 C 381.695 345.138,379.925 342.054,379.100 340.932 C 378.275 339.811,377.600 338.751,377.600 338.578 C 377.600 338.405,377.343 337.979,377.029 337.631 C 376.009 336.503,368.400 323.042,368.400 322.365 C 368.400 322.004,368.071 321.279,367.670 320.754 C 367.268 320.229,366.339 318.720,365.604 317.400 C 363.155 313.003,357.902 304.235,356.039 301.437 C 354.169 298.627,352.658 295.858,349.465 289.388 C 348.485 287.402,346.979 284.882,346.119 283.788 C 343.391 280.319,338.345 270.585,338.255 268.616 C 338.143 266.193,337.994 266.207,364.220 266.137 C 387.971 266.074,390.493 265.934,391.584 264.619 C 392.243 263.826,392.265 199.815,391.607 197.822 C 390.694 195.054,393.243 195.202,346.140 195.186 C 290.690 195.167,294.850 195.683,291.000 188.343 C 289.900 186.246,288.362 183.645,287.582 182.565 C 285.663 179.905,283.362 175.754,281.345 171.315 C 280.425 169.288,278.963 166.588,278.098 165.315 C 274.111 159.452,272.798 157.362,272.799 156.880 C 272.800 156.105,271.632 153.936,270.601 152.800 C 269.139 151.189,265.708 145.452,264.325 142.307 C 263.622 140.708,262.568 138.680,261.983 137.800 C 261.397 136.920,259.598 133.860,257.985 131.000 C 255.059 125.813,252.203 121.112,250.502 118.683 C 250.007 117.977,249.156 116.410,248.609 115.200 C 247.638 113.053,246.955 111.721,244.092 106.400 C 241.226 101.071,237.081 94.343,235.996 93.258 C 233.953 91.215,233.951 91.172,233.774 58.000 C 233.527 11.666,233.421 6.850,232.629 6.057 C 231.600 5.026,168.478 4.261,166.000 5.249 M201.822 52.831 C 202.400 53.665,203.214 54.944,203.632 55.674 C 204.051 56.403,204.855 57.810,205.420 58.800 C 205.986 59.790,207.154 61.770,208.016 63.200 C 208.879 64.630,210.880 68.410,212.464 71.600 C 214.048 74.790,216.316 78.815,217.504 80.543 C 218.692 82.272,220.484 85.242,221.486 87.143 C 222.489 89.045,224.057 91.590,224.971 92.800 C 225.885 94.010,226.971 95.770,227.383 96.712 C 227.795 97.653,228.543 98.981,229.045 99.661 C 229.547 100.342,230.081 101.461,230.232 102.149 C 230.562 103.653,233.884 109.672,236.220 113.000 C 237.147 114.320,238.452 116.480,239.120 117.800 C 239.788 119.120,241.353 121.730,242.598 123.600 C 243.843 125.470,245.904 129.164,247.178 131.809 C 248.453 134.453,250.986 138.953,252.808 141.809 C 254.630 144.664,256.364 147.580,256.661 148.288 C 256.958 148.997,257.988 150.797,258.949 152.288 C 259.911 153.780,261.555 156.620,262.603 158.600 C 264.442 162.075,267.915 168.237,270.605 172.800 C 271.319 174.010,272.299 175.787,272.784 176.749 C 273.269 177.711,274.812 180.082,276.213 182.018 C 278.755 185.531,281.462 190.483,282.368 193.276 C 282.802 194.616,284.763 197.900,287.347 201.617 C 287.889 202.396,289.074 204.441,289.979 206.161 C 290.885 207.881,292.055 209.853,292.578 210.544 C 294.055 212.492,297.415 218.406,300.808 225.029 C 302.507 228.345,304.505 231.885,305.248 232.897 C 307.024 235.314,310.421 240.997,313.798 247.200 C 315.295 249.950,316.910 252.740,317.388 253.400 C 317.866 254.060,318.549 255.344,318.907 256.254 C 319.264 257.164,320.350 259.144,321.319 260.654 C 322.289 262.164,323.572 264.390,324.171 265.600 C 324.770 266.810,325.579 268.160,325.970 268.600 C 327.416 270.229,329.228 273.219,331.813 278.242 C 333.274 281.079,334.678 283.652,334.933 283.960 C 335.589 284.751,338.989 290.921,340.426 293.928 C 341.090 295.319,342.959 298.410,344.580 300.796 C 346.200 303.183,349.016 308.147,350.838 311.828 C 352.659 315.509,354.521 318.923,354.975 319.414 C 355.741 320.244,358.449 324.535,360.800 328.643 C 365.719 337.238,366.901 339.222,367.997 340.720 C 368.689 341.666,369.449 343.016,369.684 343.720 C 369.920 344.424,370.326 345.270,370.585 345.600 C 373.010 348.682,373.609 352.497,371.917 354.077 L 370.634 355.276 316.217 355.084 C 251.092 354.855,254.866 355.135,254.247 350.473 C 253.861 347.559,249.880 342.579,236.200 327.897 C 233.780 325.300,230.343 321.516,228.561 319.488 C 222.577 312.674,220.580 311.488,219.315 314.000 C 218.929 314.767,218.810 314.832,218.806 314.276 C 218.803 313.878,218.620 313.664,218.400 313.800 C 217.704 314.230,217.971 316.942,218.814 318.000 C 219.476 318.831,219.572 318.865,219.381 318.200 C 219.254 317.760,219.477 317.966,219.875 318.658 C 220.274 319.350,222.627 322.161,225.105 324.904 C 227.582 327.648,230.177 330.682,230.870 331.646 C 231.564 332.611,235.306 336.640,239.187 340.600 C 246.581 348.146,249.439 351.818,248.998 353.206 C 248.720 354.081,248.004 354.291,247.994 353.500 C 247.989 353.117,247.911 353.122,247.657 353.521 C 246.844 354.803,230.624 355.570,225.012 354.591 C 222.446 354.143,221.376 354.110,220.522 354.449 C 219.893 354.699,215.972 354.969,211.600 355.063 L 203.800 355.230 202.835 353.973 C 201.990 352.873,201.857 352.235,201.769 348.858 C 201.714 346.736,201.545 340.140,201.393 334.200 C 201.001 318.846,201.022 318.911,197.023 320.936 C 195.910 321.500,194.666 322.061,194.258 322.184 C 193.710 322.349,193.606 322.588,193.858 323.103 C 194.267 323.937,194.558 348.637,194.189 351.165 C 194.016 352.349,193.550 353.312,192.773 354.089 L 191.614 355.248 183.848 355.124 C 176.909 355.013,175.993 354.920,175.251 354.247 C 174.557 353.618,174.238 353.568,173.310 353.940 C 170.263 355.161,155.127 355.797,151.100 354.872 C 145.861 353.668,146.130 352.885,154.834 343.991 C 158.812 339.926,162.543 335.880,163.125 335.000 C 163.706 334.120,166.513 330.970,169.362 328.000 C 180.460 316.430,182.138 312.800,176.390 312.800 C 174.832 312.800,163.579 323.749,159.888 328.857 C 159.195 329.816,156.391 332.940,153.656 335.800 C 150.921 338.660,148.157 341.720,147.513 342.600 C 146.869 343.480,145.597 344.995,144.686 345.967 C 143.093 347.668,143.033 347.827,143.101 350.167 C 143.247 355.120,147.938 354.784,78.400 354.800 C 22.652 354.812,23.294 354.846,23.209 351.890 C 23.190 351.219,26.166 345.745,27.591 343.828 C 28.422 342.713,29.968 340.270,31.028 338.400 C 32.089 336.530,33.095 334.903,33.265 334.784 C 33.435 334.666,34.670 332.278,36.009 329.478 C 37.348 326.679,39.649 322.637,41.122 320.496 C 42.595 318.356,44.700 314.880,45.800 312.772 C 46.900 310.664,48.976 306.973,50.414 304.569 C 51.852 302.166,53.417 299.300,53.892 298.200 C 55.354 294.811,59.326 287.858,60.790 286.121 C 61.555 285.214,62.725 283.465,63.390 282.235 C 64.056 281.005,66.065 277.524,67.856 274.499 C 69.648 271.475,71.244 268.550,71.404 268.000 C 71.682 267.046,78.938 254.766,81.213 251.400 C 81.808 250.520,82.972 248.450,83.800 246.800 C 84.628 245.150,85.731 243.291,86.253 242.669 C 86.774 242.047,87.316 241.057,87.457 240.469 C 87.881 238.706,89.455 235.836,92.396 231.461 C 93.926 229.185,95.701 226.170,96.339 224.761 C 96.977 223.353,98.054 221.509,98.734 220.665 C 99.413 219.821,100.090 218.741,100.238 218.265 C 100.386 217.789,101.019 216.748,101.646 215.952 C 102.892 214.368,105.199 209.741,105.200 208.826 C 105.200 208.511,105.843 207.251,106.628 206.026 C 108.931 202.438,111.331 198.762,112.320 197.308 C 112.826 196.565,114.239 194.031,115.460 191.678 C 116.681 189.325,118.084 186.950,118.577 186.400 C 119.816 185.017,121.007 182.899,121.615 181.000 C 122.397 178.556,126.428 171.388,130.729 164.792 C 136.327 156.207,138.055 153.313,138.693 151.451 C 139.296 149.692,141.772 145.229,143.880 142.100 C 144.584 141.055,145.782 139.030,146.542 137.600 C 147.780 135.272,149.191 132.915,154.683 124.000 C 155.564 122.570,157.233 119.420,158.391 117.000 C 159.549 114.580,161.284 111.406,162.248 109.946 C 163.212 108.487,164.000 107.133,164.000 106.937 C 164.000 106.742,164.646 105.600,165.436 104.401 C 166.226 103.202,167.152 101.676,167.494 101.010 C 167.836 100.345,169.266 98.058,170.671 95.929 C 172.077 93.800,174.331 89.750,175.680 86.929 C 177.029 84.108,179.543 79.524,181.267 76.742 C 182.990 73.960,184.400 71.526,184.400 71.331 C 184.400 71.137,185.122 70.018,186.003 68.844 C 186.885 67.671,188.429 65.246,189.434 63.455 C 190.439 61.665,191.517 59.750,191.828 59.200 C 192.140 58.650,192.571 57.480,192.787 56.600 C 194.078 51.343,199.285 49.171,201.822 52.831 M89.990 63.426 C 89.268 65.324,89.547 66.623,91.100 68.595 C 93.373 71.482,97.855 76.662,100.847 79.860 C 102.318 81.433,104.430 84.066,105.541 85.712 C 106.651 87.358,109.031 90.259,110.830 92.159 C 114.409 95.940,114.688 96.710,113.223 98.768 L 112.346 100.000 101.200 100.000 L 90.054 100.000 89.242 98.859 C 88.796 98.232,88.042 96.297,87.567 94.559 C 84.847 84.597,75.074 81.133,70.994 88.686 C 70.425 89.739,69.544 91.287,69.036 92.127 C 66.366 96.542,67.940 104.050,71.880 105.696 C 75.059 107.023,108.032 108.042,108.778 106.836 C 108.939 106.575,110.084 106.301,111.322 106.227 C 113.286 106.110,113.804 105.889,115.396 104.487 C 117.791 102.379,118.834 102.143,120.822 103.260 C 121.690 103.748,122.400 104.290,122.400 104.463 C 122.400 104.974,124.603 105.966,126.767 106.430 C 130.103 107.146,132.409 105.093,132.537 101.293 L 132.600 99.436 130.440 98.948 C 126.462 98.048,119.668 92.324,113.332 84.533 C 112.049 82.955,109.740 80.243,108.200 78.505 C 106.660 76.766,104.500 74.197,103.400 72.795 C 102.300 71.392,100.275 69.071,98.899 67.635 C 97.524 66.200,96.296 64.703,96.171 64.308 C 95.544 62.334,90.670 61.638,89.990 63.426 M324.255 65.000 C 324.421 65.433,324.195 65.614,323.443 65.650 C 321.717 65.733,321.586 65.777,321.192 66.400 C 319.453 69.150,323.527 73.537,326.394 72.003 C 328.464 70.896,329.062 67.026,327.418 65.382 C 326.291 64.255,323.857 63.961,324.255 65.000 M47.092 68.829 C 46.702 69.060,46.475 69.398,46.587 69.579 C 46.700 69.761,46.494 69.885,46.130 69.855 C 44.147 69.690,43.342 74.251,44.550 78.800 C 46.053 84.457,46.740 95.843,46.004 102.904 C 45.309 109.572,46.203 110.892,50.272 109.206 C 52.705 108.197,54.428 108.064,58.639 108.558 L 61.478 108.891 62.354 107.474 C 62.980 106.461,63.152 105.747,62.957 104.969 C 62.761 104.192,62.816 103.963,63.148 104.168 C 63.404 104.326,63.492 104.651,63.345 104.889 C 63.185 105.149,63.263 105.209,63.538 105.038 C 64.278 104.581,64.083 103.884,62.771 102.291 L 61.542 100.800 57.871 100.799 C 51.211 100.798,50.131 99.499,50.878 92.389 C 51.394 87.476,50.693 71.322,49.890 69.642 C 49.346 68.503,48.200 68.170,47.092 68.829 M302.287 72.594 C 299.969 73.236,299.542 73.572,297.747 76.170 C 296.975 77.286,295.918 78.794,295.398 79.520 C 292.637 83.375,294.604 91.459,298.828 93.614 C 303.322 95.907,307.579 94.921,311.023 90.788 C 311.476 90.245,312.598 89.170,313.517 88.400 C 316.207 86.145,316.559 83.996,314.797 80.594 C 313.352 77.806,309.370 73.600,308.174 73.600 C 307.797 73.600,307.288 73.347,307.044 73.037 C 306.371 72.185,304.419 72.003,302.287 72.594 M344.203 74.229 C 342.091 75.330,340.603 76.662,338.803 79.059 C 334.463 84.843,333.834 85.172,332.312 82.463 C 330.328 78.929,326.643 77.234,323.962 78.619 C 322.336 79.460,318.806 82.029,318.088 82.894 C 316.996 84.210,319.024 89.759,321.630 92.586 C 323.410 94.517,323.498 95.197,322.571 99.860 C 322.299 101.230,323.399 102.800,324.630 102.800 C 326.661 102.800,331.972 95.637,333.012 91.495 C 333.391 89.986,333.903 89.775,334.930 90.704 C 335.408 91.137,337.058 92.185,338.595 93.033 L 341.390 94.575 365.661 94.644 C 388.685 94.709,389.995 94.674,391.155 93.969 C 393.290 92.671,393.304 90.568,391.198 87.661 C 388.798 84.347,385.917 84.316,381.845 87.561 C 379.305 89.584,378.127 89.342,373.241 85.788 C 370.651 83.905,367.988 84.426,364.717 87.456 C 361.147 90.763,357.616 89.932,356.830 85.600 C 355.142 76.298,349.676 71.376,344.203 74.229 M305.419 80.706 C 306.794 81.670,308.886 86.438,308.055 86.715 C 307.805 86.798,307.600 87.102,307.600 87.391 C 307.600 90.366,299.667 86.758,298.621 83.307 C 297.993 81.233,303.283 79.209,305.419 80.706 M347.991 81.195 C 352.082 83.385,350.226 89.744,345.745 88.887 C 343.258 88.412,340.145 83.787,341.387 82.414 C 342.635 81.035,346.395 80.341,347.991 81.195 M16.197 84.256 C 15.099 84.836,13.861 85.545,13.447 85.831 C 12.625 86.397,9.600 90.680,9.600 91.278 C 9.600 91.481,9.420 91.536,9.199 91.400 C 8.544 90.995,7.999 93.067,8.009 95.926 C 8.034 103.603,15.427 109.149,21.504 106.049 C 22.437 105.573,23.200 104.997,23.200 104.768 C 23.200 104.540,23.384 104.466,23.608 104.605 C 23.833 104.744,24.267 104.260,24.574 103.529 C 24.880 102.798,25.750 101.390,26.507 100.400 C 27.263 99.410,28.256 97.868,28.712 96.973 C 31.425 91.653,35.685 95.646,35.251 103.100 C 35.139 105.013,35.957 104.752,38.390 102.100 C 41.270 98.961,41.366 97.982,39.242 93.489 C 38.339 91.579,37.600 89.664,37.600 89.234 C 37.600 86.180,36.064 85.790,30.354 87.395 L 27.708 88.139 25.754 86.493 C 21.817 83.178,19.335 82.597,16.197 84.256 M17.200 85.161 C 17.200 85.359,16.660 85.710,16.000 85.940 C 15.340 86.170,14.800 86.203,14.800 86.013 C 14.800 85.740,15.719 85.268,17.100 84.832 C 17.155 84.814,17.200 84.962,17.200 85.161 M21.300 94.300 C 22.716 95.651,22.694 96.967,21.231 98.431 C 19.230 100.432,16.756 99.482,16.157 96.483 C 15.407 92.734,18.349 91.485,21.300 94.300 M79.494 93.700 C 81.506 95.792,81.552 96.853,79.716 98.822 L 78.157 100.493 75.979 99.395 C 70.592 96.681,70.299 94.450,75.132 92.942 C 77.492 92.206,78.169 92.323,79.494 93.700 M50.354 98.000 C 50.384 98.533,50.345 98.533,50.000 98.000 C 49.787 97.670,49.627 96.950,49.646 96.400 L 49.680 95.400 50.000 96.400 C 50.176 96.950,50.335 97.670,50.354 98.000 M348.653 109.991 C 347.276 112.072,347.308 113.029,348.780 113.790 C 351.218 115.050,352.719 114.031,352.187 111.477 C 351.504 108.197,350.202 107.650,348.653 109.991 M196.200 146.400 C 196.496 146.879,198.285 146.879,199.400 146.400 C 199.986 146.148,199.632 146.049,198.076 146.028 C 196.756 146.011,196.046 146.151,196.200 146.400 M184.600 148.825 C 183.720 149.005,181.380 149.443,179.400 149.797 C 177.420 150.152,174.720 150.952,173.400 151.577 C 172.080 152.201,169.732 153.086,168.182 153.542 C 166.414 154.064,164.999 154.765,164.382 155.424 C 163.842 156.003,162.860 156.754,162.200 157.094 C 161.540 157.434,160.477 158.149,159.838 158.682 C 159.200 159.216,157.479 160.255,156.015 160.992 C 152.750 162.636,152.328 163.124,152.098 165.516 C 151.834 168.267,152.577 170.587,154.060 171.643 C 154.756 172.138,155.705 173.441,156.223 174.614 C 156.901 176.148,157.453 176.810,158.296 177.104 C 159.161 177.405,159.567 177.912,159.938 179.152 C 160.234 180.139,160.911 181.154,161.626 181.682 C 162.844 182.583,168.121 189.670,168.788 191.300 C 168.990 191.795,169.867 192.997,170.736 193.972 C 171.605 194.946,172.516 196.410,172.760 197.224 C 173.425 199.445,174.298 200.013,175.246 198.843 C 176.532 197.254,175.917 194.543,173.622 191.687 C 171.737 189.342,171.489 186.836,173.001 185.434 C 173.606 184.873,174.239 184.500,174.407 184.605 C 174.921 184.922,179.627 183.259,182.187 181.855 C 185.488 180.044,186.436 179.872,188.989 180.614 C 193.316 181.872,194.918 178.277,193.539 170.400 C 192.970 167.149,192.867 165.702,192.817 160.200 C 192.781 156.294,192.945 154.775,193.841 150.749 C 194.314 148.620,189.984 147.719,184.600 148.825 M203.100 148.676 C 202.278 148.890,202.115 151.038,202.900 151.300 C 203.647 151.550,203.375 159.943,202.166 173.912 C 201.968 176.204,202.034 177.692,202.382 178.746 L 202.885 180.269 207.342 180.774 C 213.434 181.465,215.777 182.114,218.196 183.779 C 219.957 184.993,220.586 185.200,222.501 185.200 C 226.353 185.200,226.833 186.376,224.400 189.849 C 223.520 191.105,222.800 192.377,222.800 192.675 C 222.800 192.974,222.081 193.998,221.203 194.951 C 217.384 199.094,217.281 208.882,221.036 210.792 C 222.881 211.730,224.539 213.209,226.763 215.900 C 229.141 218.778,229.233 218.805,231.061 217.200 C 234.169 214.471,235.600 215.659,235.600 220.970 C 235.600 224.468,235.720 225.258,236.372 226.056 L 237.144 227.000 238.674 225.515 C 240.487 223.754,244.950 222.095,245.854 222.845 C 246.416 223.311,247.130 225.550,247.402 227.694 C 247.716 230.179,248.714 230.605,251.422 229.407 C 255.460 227.622,257.265 229.322,254.301 232.120 C 253.074 233.278,251.200 236.957,251.200 238.207 C 251.200 239.487,254.555 239.482,256.236 238.200 C 260.803 234.716,262.624 240.803,258.156 244.620 C 254.970 247.342,255.457 249.418,259.105 248.663 C 267.049 247.017,268.344 247.872,265.730 253.034 C 264.193 256.069,264.695 256.590,268.825 256.246 C 272.193 255.965,272.862 256.296,273.415 258.511 C 273.773 259.944,272.249 261.458,270.099 261.808 C 264.111 262.780,262.510 265.541,265.661 269.458 C 270.005 274.856,268.878 278.061,262.375 278.803 C 247.885 280.455,237.959 279.724,235.200 276.799 C 234.210 275.750,232.921 274.591,232.336 274.223 C 231.751 273.856,230.851 272.939,230.336 272.186 C 229.821 271.433,228.894 270.606,228.276 270.350 C 227.657 270.093,226.698 269.289,226.145 268.563 C 225.496 267.712,224.457 267.017,223.217 266.605 C 222.159 266.254,220.419 265.345,219.349 264.584 C 216.049 262.238,214.031 262.509,210.304 265.799 C 206.185 269.435,205.744 270.721,206.353 277.323 C 207.193 286.417,205.629 292.711,201.324 297.561 L 199.762 299.321 197.106 298.820 C 195.515 298.520,194.175 298.015,193.764 297.560 C 192.631 296.308,191.618 287.754,191.609 279.346 L 191.600 272.092 190.617 271.448 C 190.068 271.088,189.417 270.083,189.145 269.175 C 188.640 267.488,187.979 266.711,185.600 265.008 C 182.051 262.468,179.869 262.294,177.491 264.363 C 176.781 264.982,175.300 265.882,174.200 266.365 C 173.100 266.848,171.750 267.657,171.200 268.163 C 170.650 268.668,169.300 269.678,168.200 270.406 C 167.100 271.134,164.670 273.113,162.800 274.805 C 157.236 279.838,154.997 280.251,138.775 279.246 C 128.823 278.630,128.400 278.414,128.400 273.966 L 128.400 271.479 130.646 269.304 C 134.381 265.687,133.393 263.427,127.522 262.159 C 123.326 261.252,122.723 260.676,122.881 257.722 C 123.020 255.107,123.853 254.183,125.077 255.286 C 126.090 256.199,127.722 256.533,129.705 256.233 C 132.584 255.798,132.781 255.451,131.086 253.804 C 129.442 252.208,129.178 250.776,130.174 248.851 C 131.251 246.767,131.684 246.645,134.558 247.616 C 137.325 248.550,140.739 248.386,141.100 247.300 C 141.192 247.025,140.190 245.675,138.874 244.300 C 133.742 238.936,134.478 236.249,140.600 238.000 C 145.345 239.357,145.947 239.057,144.407 236.103 C 142.013 231.510,143.349 226.850,146.167 229.964 C 148.375 232.403,150.400 230.978,150.400 226.984 C 150.400 223.052,151.863 222.256,155.515 224.200 C 159.607 226.378,160.929 225.401,160.574 220.460 C 160.225 215.589,160.676 215.038,163.407 216.999 C 166.501 219.222,168.979 218.521,171.779 214.629 C 172.740 213.293,174.353 211.398,175.363 210.417 C 176.374 209.436,177.204 208.356,177.209 208.017 C 177.214 207.678,177.570 206.950,178.000 206.400 C 179.328 204.702,178.181 203.336,176.813 204.985 C 176.546 205.306,175.939 205.691,175.464 205.840 C 174.989 205.989,173.558 207.073,172.284 208.249 C 169.559 210.765,167.680 211.412,162.000 211.791 C 157.109 212.117,156.928 212.182,156.032 213.929 C 155.131 215.687,153.767 216.996,152.405 217.411 C 151.858 217.578,150.750 218.151,149.942 218.686 C 148.656 219.537,148.288 219.607,146.986 219.247 C 145.500 218.837,145.497 218.839,143.058 221.457 C 141.715 222.898,139.941 224.422,139.114 224.844 C 137.243 225.798,136.657 226.683,135.574 230.190 C 134.966 232.158,134.361 233.266,133.502 233.985 C 130.789 236.254,129.698 237.621,128.326 240.471 C 127.345 242.509,126.335 243.920,125.154 244.901 C 123.708 246.102,123.248 246.859,122.379 249.470 L 121.337 252.600 118.568 253.704 C 115.952 254.747,115.078 255.444,112.462 258.572 C 111.612 259.588,111.350 259.671,109.662 259.462 C 108.638 259.335,106.718 259.115,105.395 258.974 L 102.989 258.718 101.493 260.891 C 98.956 264.575,98.454 264.893,94.706 265.196 C 91.234 265.477,89.660 266.077,87.089 268.097 C 86.258 268.751,84.738 269.538,83.713 269.846 C 79.977 270.971,79.072 272.645,80.601 275.602 C 81.353 277.056,81.456 277.073,92.800 277.564 C 101.306 277.932,107.924 278.577,121.800 280.394 C 129.601 281.415,130.413 281.499,139.400 282.204 C 143.580 282.532,148.008 282.998,149.240 283.240 C 153.549 284.087,160.430 282.325,163.273 279.645 C 164.116 278.850,165.840 277.265,167.103 276.122 C 169.952 273.545,171.530 272.016,172.722 270.677 C 173.798 269.468,177.365 268.037,180.114 267.712 C 187.014 266.895,192.246 279.582,187.709 286.132 C 185.511 289.306,187.907 296.175,191.900 298.145 C 192.615 298.498,193.204 298.925,193.209 299.094 C 193.290 301.898,194.850 309.792,195.455 310.461 C 196.128 311.206,198.820 312.800,199.404 312.800 C 199.794 312.800,200.707 310.324,201.368 307.476 C 202.183 303.962,203.997 300.413,206.634 297.172 C 210.234 292.748,210.611 291.249,209.392 286.200 C 207.589 278.735,209.356 271.475,213.718 268.422 C 216.215 266.674,216.850 266.497,217.557 267.349 C 217.808 267.651,219.111 268.298,220.453 268.787 C 222.611 269.574,223.567 270.343,228.740 275.451 C 236.436 283.050,240.481 284.010,257.400 282.254 C 274.372 280.492,287.559 278.924,291.800 278.163 C 293.578 277.845,299.178 277.479,304.400 277.341 C 314.920 277.064,315.403 276.969,316.219 275.015 C 317.134 272.827,316.977 271.655,315.700 271.132 C 312.005 269.616,309.399 268.290,308.832 267.637 C 307.951 266.621,305.939 265.828,302.692 265.216 C 300.266 264.760,299.642 264.426,296.692 262.015 C 292.339 258.456,291.826 258.196,290.704 258.982 C 288.280 260.680,284.267 259.551,281.549 256.407 C 279.964 254.574,279.559 254.335,277.232 253.864 L 274.663 253.343 273.727 249.771 C 272.836 246.373,272.676 246.093,270.440 243.997 C 268.788 242.448,267.940 241.293,267.584 240.104 C 267.213 238.867,266.457 237.874,264.770 236.406 C 262.483 234.417,260.000 230.418,260.000 228.723 C 260.000 226.762,258.896 225.303,256.628 224.264 C 255.389 223.697,253.329 222.235,252.051 221.016 C 249.692 218.766,248.898 218.478,247.015 219.194 C 246.046 219.563,245.719 219.319,242.030 215.489 L 238.082 211.390 234.934 211.533 C 224.311 212.016,218.118 203.776,224.161 197.200 C 224.667 196.650,225.679 195.120,226.410 193.800 C 227.142 192.480,228.145 190.907,228.641 190.304 C 229.136 189.701,229.746 188.223,229.996 187.020 C 230.399 185.078,230.668 184.671,232.380 183.414 C 236.194 180.615,242.005 173.713,243.617 170.068 C 244.065 169.057,244.728 167.901,245.091 167.499 C 246.399 166.054,244.210 162.712,240.875 161.064 C 239.367 160.319,236.167 158.371,233.766 156.737 C 230.537 154.539,228.700 153.576,226.714 153.042 C 225.237 152.644,223.167 151.769,222.114 151.097 C 220.532 150.087,219.820 149.884,218.011 149.927 C 216.808 149.956,214.353 149.624,212.557 149.190 C 209.578 148.469,204.868 148.214,203.100 148.676 M187.880 156.321 C 188.176 158.529,187.754 160.088,186.903 159.924 C 185.763 159.705,185.180 155.932,186.039 154.327 C 186.664 153.160,187.591 154.165,187.880 156.321 M221.777 156.489 C 222.908 158.103,222.568 160.345,220.790 163.000 C 219.906 164.320,218.894 166.390,218.541 167.600 C 217.638 170.698,217.009 171.789,215.616 172.671 C 214.949 173.094,213.837 174.330,213.147 175.419 C 211.925 177.346,211.882 177.373,211.530 176.423 C 210.943 174.836,211.453 169.616,212.405 167.474 C 212.875 166.415,213.292 164.948,213.330 164.214 C 213.369 163.481,213.516 162.952,213.658 163.038 C 213.981 163.235,214.496 161.962,214.209 161.676 C 214.094 161.561,214.000 161.707,214.000 162.000 C 214.000 162.293,213.906 162.439,213.791 162.324 C 213.467 162.000,214.041 160.778,214.410 161.006 C 214.589 161.117,215.425 160.330,216.268 159.257 C 218.967 155.821,220.700 154.950,221.777 156.489 M179.191 157.991 C 180.081 158.881,180.966 160.820,181.407 162.843 C 181.569 163.589,182.223 164.928,182.860 165.818 C 185.574 169.610,185.250 179.261,182.434 178.525 C 181.964 178.402,181.280 177.195,180.464 175.048 C 179.777 173.240,178.659 170.921,177.980 169.895 C 175.857 166.690,175.131 159.271,176.808 157.913 C 177.924 157.009,178.219 157.019,179.191 157.991 M170.333 161.469 C 172.939 163.124,173.159 170.400,170.604 170.400 C 170.031 170.400,169.289 169.778,168.424 168.574 C 167.703 167.570,166.413 165.939,165.557 164.950 C 162.432 161.340,166.018 158.727,170.333 161.469 M230.177 161.289 C 231.448 163.103,230.766 165.992,228.595 168.000 C 228.000 168.550,227.100 169.930,226.594 171.066 C 225.827 172.788,224.704 174.000,223.875 174.000 C 222.160 174.000,222.739 167.531,224.607 165.818 C 225.338 165.148,226.058 164.112,226.207 163.516 C 226.847 160.961,229.073 159.713,230.177 161.289 M239.123 165.721 L 240.404 167.042 239.775 169.159 C 239.395 170.437,238.546 171.934,237.630 172.938 C 236.796 173.852,235.632 175.371,235.044 176.313 C 234.289 177.521,233.622 178.096,232.779 178.264 C 231.389 178.542,231.141 178.849,230.600 180.962 C 229.844 183.911,228.256 183.907,227.590 180.954 C 227.273 179.551,227.364 179.252,228.590 177.679 C 229.392 176.649,230.043 175.269,230.197 174.274 C 230.715 170.926,231.313 169.811,234.049 167.100 C 237.179 163.997,237.396 163.938,239.123 165.721 M161.060 165.971 C 161.902 166.485,162.755 167.645,163.630 169.470 C 164.351 170.971,165.531 172.830,166.253 173.600 C 167.664 175.105,168.800 177.798,168.800 179.640 C 168.800 180.492,169.092 180.930,169.957 181.378 C 171.084 181.960,172.217 184.126,171.772 184.846 C 171.077 185.969,168.800 184.861,168.800 183.400 C 168.800 182.239,168.050 181.600,166.690 181.600 C 165.921 181.600,165.251 181.242,164.670 180.518 C 164.191 179.923,162.859 178.528,161.709 177.418 C 160.223 175.984,159.335 174.677,158.639 172.902 C 158.101 171.528,157.287 169.928,156.830 169.348 C 154.463 166.338,157.580 163.850,161.060 165.971 M175.307 172.120 C 175.697 173.290,175.056 175.600,174.342 175.600 C 173.521 175.600,172.791 171.743,173.480 171.053 C 174.038 170.495,174.942 171.024,175.307 172.120 M207.200 179.200 C 207.200 179.420,206.761 179.600,206.224 179.600 C 205.687 179.600,205.136 179.420,205.000 179.200 C 204.856 178.967,205.263 178.800,205.976 178.800 C 206.649 178.800,207.200 178.980,207.200 179.200 M7.600 196.400 C 6.812 196.909,5.885 196.909,6.200 196.400 C 6.336 196.180,6.842 196.003,7.324 196.006 C 8.036 196.011,8.088 196.085,7.600 196.400 M163.601 305.038 C 161.920 305.999,159.250 308.018,157.400 309.727 C 156.960 310.134,155.430 311.183,154.000 312.059 C 152.570 312.935,149.780 314.801,147.800 316.207 C 145.820 317.612,141.860 320.350,139.000 322.292 C 122.834 333.265,122.000 333.958,122.000 336.426 C 122.000 337.699,122.251 338.618,122.775 339.256 L 123.550 340.200 126.827 338.445 C 130.117 336.682,133.850 334.103,137.200 331.277 C 138.190 330.441,140.314 328.868,141.919 327.779 C 146.301 324.809,150.459 322.064,151.752 321.290 C 161.307 315.568,169.600 308.477,169.600 306.029 C 169.600 304.203,166.079 303.622,163.601 305.038 M228.300 304.809 C 225.741 306.384,228.505 309.936,236.400 315.217 C 238.490 316.615,241.730 318.808,243.600 320.090 C 245.470 321.373,248.196 323.214,249.658 324.182 C 251.120 325.149,252.430 326.125,252.569 326.351 C 252.709 326.576,254.302 327.663,256.111 328.768 C 257.920 329.872,260.840 332.059,262.600 333.627 C 264.360 335.196,266.520 336.846,267.400 337.294 C 268.280 337.743,269.429 338.445,269.954 338.855 C 270.633 339.385,271.573 339.600,273.216 339.600 L 275.525 339.600 275.802 337.588 C 276.150 335.056,276.246 335.168,270.038 330.926 C 267.267 329.033,264.730 327.173,264.400 326.793 C 263.590 325.862,257.096 321.566,254.540 320.271 C 253.407 319.697,251.676 318.546,250.693 317.713 C 249.710 316.881,247.254 315.030,245.236 313.600 C 243.217 312.170,240.988 310.537,240.283 309.972 C 234.458 305.302,230.364 303.538,228.300 304.809 M186.109 320.208 C 184.973 321.004,181.501 326.573,180.627 329.000 C 180.231 330.100,179.377 331.961,178.730 333.136 C 178.083 334.310,177.043 336.595,176.421 338.212 C 175.798 339.829,174.936 341.658,174.505 342.276 C 173.431 343.818,172.800 345.820,172.800 347.686 C 172.800 353.418,177.379 350.718,180.749 343.000 C 181.709 340.800,182.730 338.730,183.017 338.400 C 185.580 335.458,190.630 322.637,189.677 321.496 C 188.588 320.195,186.965 319.609,186.109 320.208 M208.097 320.413 C 206.166 321.190,206.139 322.456,207.983 325.816 C 208.910 327.506,210.119 330.083,210.669 331.544 C 211.218 333.005,211.809 334.380,211.980 334.600 C 212.152 334.820,212.875 336.527,213.587 338.392 C 214.695 341.298,215.696 343.182,219.512 349.547 C 220.590 351.345,225.200 350.248,225.200 348.194 C 225.200 346.867,218.251 332.777,215.490 328.502 C 214.886 327.568,214.201 325.910,213.966 324.817 C 213.566 322.949,211.519 320.400,210.419 320.400 C 210.224 320.400,209.826 320.321,209.533 320.225 C 209.240 320.129,208.594 320.214,208.097 320.413 M9.020 363.514 C 8.677 363.857,7.599 362.736,7.613 362.051 C 7.624 361.547,7.807 361.617,8.423 362.357 C 8.861 362.883,9.130 363.403,9.020 363.514 M268.465 402.454 C 265.174 404.093,264.796 406.653,267.630 408.099 C 271.862 410.260,274.899 407.040,272.286 403.162 C 271.145 401.468,270.634 401.374,268.465 402.454 M16.894 404.369 C 14.134 405.071,7.486 410.486,6.372 412.940 C 3.113 420.115,10.737 428.000,20.933 428.000 C 24.331 428.000,31.325 422.361,33.561 417.818 C 36.862 411.114,42.278 414.195,42.572 422.943 C 42.632 424.752,42.895 426.630,43.155 427.116 L 43.628 428.000 70.806 428.000 C 101.381 428.000,101.164 428.020,104.781 424.924 C 110.653 419.897,105.556 412.605,93.254 408.433 C 91.853 407.958,90.022 407.219,89.183 406.791 C 85.033 404.674,73.041 403.169,72.088 404.646 C 71.930 404.891,71.400 405.217,70.910 405.370 C 70.421 405.522,69.656 406.111,69.210 406.678 C 68.334 407.792,68.112 407.286,68.862 405.884 C 69.312 405.044,69.298 405.037,68.364 405.658 C 65.102 407.824,66.542 410.800,70.851 410.800 C 82.169 410.800,97.761 416.276,95.736 419.540 C 94.679 421.243,94.082 421.288,72.889 421.250 C 49.354 421.207,51.808 421.749,49.390 416.058 C 45.096 405.953,43.042 404.572,37.735 408.227 C 35.825 409.542,35.456 409.663,34.568 409.258 C 34.015 409.006,33.211 408.800,32.782 408.800 C 32.353 408.800,31.305 408.170,30.453 407.401 C 27.360 404.606,21.294 403.250,16.894 404.369 M295.312 404.464 C 293.291 404.917,292.000 406.375,292.000 408.205 C 292.000 409.926,292.473 410.236,295.900 410.762 C 304.277 412.048,306.957 413.046,310.975 416.375 C 316.391 420.864,314.935 421.257,294.000 420.959 C 276.606 420.711,276.049 420.646,273.560 418.567 C 271.433 416.789,270.428 416.570,268.236 417.408 C 265.208 418.564,265.000 419.010,265.000 424.342 C 265.000 430.701,265.659 432.145,268.640 432.319 C 270.822 432.446,270.688 432.530,273.472 429.271 L 274.608 427.942 318.833 427.984 L 363.059 428.026 364.229 427.118 C 367.051 424.928,368.173 423.666,369.057 421.689 C 370.362 418.766,370.287 418.234,368.471 417.521 C 367.301 417.061,366.494 416.247,365.037 414.056 C 361.517 408.761,356.712 407.146,351.600 409.540 C 348.922 410.793,347.634 410.633,343.700 408.559 C 336.836 404.938,330.127 408.481,328.393 416.641 C 328.087 418.078,327.564 419.066,326.627 419.974 L 325.295 421.265 323.748 420.467 C 321.869 419.500,320.087 417.630,318.671 415.139 C 314.811 408.353,302.685 402.812,295.312 404.464 M380.021 404.442 C 373.190 407.170,370.005 419.379,374.896 424.092 C 379.790 428.810,382.695 428.922,386.988 424.559 C 392.307 419.154,393.288 416.633,391.716 412.404 C 389.481 406.389,384.181 402.780,380.021 404.442 M247.364 405.128 C 245.199 406.498,240.800 414.168,240.800 416.572 C 240.800 420.589,245.053 426.553,248.679 427.620 C 250.945 428.287,253.729 426.943,257.131 423.541 C 259.639 421.033,259.935 420.433,260.871 415.944 C 262.291 409.140,252.903 401.622,247.364 405.128 M22.109 412.584 C 25.948 414.405,27.187 419.664,24.057 420.854 C 21.732 421.738,15.824 418.031,15.091 415.228 C 14.363 412.442,18.514 410.878,22.109 412.584 M384.319 413.042 C 386.249 414.305,387.326 417.363,386.552 419.382 C 386.104 420.549,384.043 421.360,383.264 420.676 C 382.899 420.356,382.200 419.973,381.711 419.824 C 379.261 419.078,377.271 415.284,378.184 413.100 L 378.763 411.715 381.081 412.078 C 382.357 412.278,383.814 412.712,384.319 413.042 M251.879 412.838 C 257.300 415.462,256.179 422.241,250.628 420.409 C 247.205 419.280,245.699 413.542,248.526 412.403 C 249.794 411.892,249.972 411.915,251.879 412.838 M247.187 412.700 C 247.180 412.865,246.910 413.349,246.587 413.776 C 245.988 414.568,245.805 414.173,246.243 413.033 C 246.487 412.396,247.211 412.141,247.187 412.700 M340.230 414.196 C 345.032 417.011,344.411 421.044,339.206 420.845 C 336.616 420.745,335.685 420.036,335.338 417.898 C 334.674 413.806,336.808 412.191,340.230 414.196 M357.693 416.373 C 361.567 418.830,360.685 421.200,355.898 421.200 C 352.294 421.200,351.341 419.542,353.196 416.500 C 354.198 414.856,355.255 414.827,357.693 416.373 " stroke="none" fill="#0a1187" fill-rule="evenodd"></path>
  </g>
</svg>