<?xml version="1.0" encoding="UTF-8" standalone="no"?>
<!DOCTYPE svg PUBLIC "-//W3C//DTD SVG 1.1//EN" "http://www.w3.org/Graphics/SVG/1.1/DTD/svg11.dtd">
<svg id="svg" version="1.1" xmlns="http://www.w3.org/2000/svg" xmlns:xlink="http://www.w3.org/1999/xlink"   viewBox="0, 0, 400,400">
  <g id="svgg">
    <path id="path0" d="M189.192 117.479 C 187.992 117.599,187.207 118.243,187.440 118.917 C 187.637 119.483,187.699 141.200,187.512 143.917 C 187.299 147.004,186.209 150.919,185.657 150.578 C 185.583 150.532,185.469 150.582,185.402 150.690 C 185.327 150.812,185.354 150.840,185.474 150.766 C 185.870 150.522,185.628 150.953,184.174 153.090 C 183.353 154.297,182.431 155.764,182.125 156.350 C 181.819 156.937,181.327 157.789,181.032 158.244 C 180.737 158.699,180.430 159.309,180.350 159.599 C 180.270 159.888,179.821 160.724,179.352 161.454 C 178.884 162.185,178.500 162.821,178.500 162.867 C 178.500 162.942,177.890 163.996,176.432 166.438 C 176.165 166.885,175.694 167.642,175.384 168.121 C 175.075 168.600,174.272 170.075,173.600 171.400 C 172.928 172.725,172.214 174.021,172.013 174.279 C 171.412 175.053,170.167 177.054,170.167 177.246 C 170.167 177.344,169.530 178.435,168.752 179.671 C 167.973 180.906,167.336 182.014,167.335 182.133 C 167.330 182.791,166.226 184.239,165.500 184.539 C 165.221 184.655,159.810 184.701,149.134 184.679 C 134.267 184.650,133.154 184.667,132.745 184.936 C 132.373 185.179,132.282 185.187,132.159 184.988 C 132.040 184.796,131.975 184.792,131.799 184.968 C 131.474 185.293,131.376 208.785,131.698 209.214 C 131.906 209.491,132.512 209.516,140.702 209.576 C 150.771 209.650,150.433 209.605,150.390 210.876 C 150.374 211.351,150.234 211.838,150.032 212.121 C 149.850 212.377,149.241 213.486,148.678 214.585 C 148.115 215.684,147.414 216.935,147.119 217.365 C 146.824 217.795,146.331 218.583,146.023 219.115 C 145.714 219.648,145.041 220.796,144.526 221.667 C 144.011 222.537,143.175 224.050,142.670 225.029 C 141.413 227.459,140.383 229.272,139.751 230.167 C 139.006 231.220,137.696 233.457,136.680 235.410 C 135.800 237.102,134.987 238.477,133.692 240.469 C 132.318 242.584,131.864 243.793,132.335 244.084 C 132.428 244.142,144.520 244.181,159.207 244.172 C 184.154 244.157,185.946 244.175,186.443 244.443 C 187.466 244.993,187.409 243.964,187.500 263.667 C 187.546 273.612,187.649 281.851,187.729 281.975 C 187.937 282.298,188.978 282.701,189.216 282.550 C 189.326 282.481,194.420 282.422,200.535 282.420 C 212.716 282.416,212.142 282.463,212.281 281.464 C 212.310 281.254,212.361 273.208,212.395 263.583 C 212.461 245.162,212.470 244.943,213.217 244.453 C 213.603 244.200,264.501 244.006,266.250 244.251 C 267.766 244.463,267.916 243.100,266.597 241.097 C 266.104 240.349,265.368 239.064,264.961 238.243 C 264.554 237.422,263.754 236.053,263.184 235.202 C 262.201 233.734,261.874 233.167,260.261 230.147 C 259.888 229.448,259.370 228.481,259.109 227.996 C 258.504 226.873,255.728 222.241,255.267 221.585 C 254.866 221.015,254.150 219.690,253.178 217.717 C 252.808 216.966,252.292 216.103,252.031 215.800 C 251.317 214.972,249.398 211.372,249.329 210.735 C 249.222 209.739,248.997 209.764,258.674 209.669 C 266.666 209.591,267.471 209.558,267.879 209.290 L 268.327 208.997 268.324 197.623 C 268.321 185.522,268.298 185.159,267.541 184.858 C 267.226 184.734,262.074 184.656,251.083 184.610 C 242.283 184.574,234.884 184.489,234.640 184.422 C 233.961 184.235,233.197 183.386,232.546 182.092 C 232.222 181.448,231.630 180.445,231.232 179.863 C 230.833 179.281,230.047 177.855,229.484 176.694 C 228.922 175.533,228.244 174.283,227.978 173.917 C 227.126 172.742,226.409 171.585,226.167 170.993 C 226.037 170.676,225.426 169.663,224.808 168.741 C 224.191 167.820,223.480 166.583,223.228 165.991 C 222.977 165.400,222.574 164.617,222.334 164.250 C 222.093 163.883,221.459 162.796,220.923 161.833 C 220.388 160.871,219.783 159.821,219.578 159.500 C 218.208 157.355,217.804 156.653,216.658 154.417 C 215.220 151.613,213.846 149.302,213.222 148.644 C 212.550 147.933,212.532 147.585,212.422 133.191 C 212.364 125.615,212.274 119.201,212.224 118.937 C 212.161 118.611,212.190 118.495,212.316 118.572 C 212.578 118.734,212.544 118.470,212.249 118.049 C 212.065 117.786,211.764 117.667,211.124 117.602 C 209.798 117.467,190.402 117.359,189.192 117.479 M200.814 133.979 C 201.060 134.243,201.715 135.237,202.269 136.188 C 202.824 137.139,203.440 138.179,203.639 138.500 C 203.839 138.821,204.425 139.946,204.942 141.000 C 205.459 142.054,206.238 143.445,206.673 144.091 C 207.108 144.737,207.781 145.860,208.169 146.587 C 208.556 147.314,209.110 148.211,209.400 148.580 C 209.690 148.948,210.096 149.587,210.302 150.000 C 210.509 150.412,210.781 150.938,210.907 151.167 C 211.032 151.396,211.306 151.996,211.515 152.500 C 211.724 153.004,212.359 154.129,212.926 155.000 C 213.492 155.871,214.115 156.897,214.309 157.281 C 214.503 157.664,215.156 158.739,215.760 159.670 C 216.364 160.601,216.957 161.642,217.078 161.985 C 217.335 162.712,217.989 163.961,218.630 164.946 C 218.880 165.329,219.421 166.212,219.833 166.910 C 220.246 167.607,220.839 168.606,221.151 169.130 C 221.463 169.655,222.295 171.133,222.999 172.417 C 223.704 173.700,224.566 175.237,224.915 175.833 C 225.264 176.429,225.824 177.404,226.158 178.000 C 226.492 178.596,227.146 179.608,227.612 180.250 C 228.543 181.533,229.499 183.323,229.501 183.787 C 229.501 183.950,229.996 184.833,230.599 185.750 C 231.202 186.667,231.887 187.792,232.120 188.250 C 232.354 188.708,232.750 189.383,233.001 189.750 C 233.828 190.958,235.027 193.050,236.178 195.295 C 236.802 196.511,237.472 197.711,237.666 197.961 C 238.149 198.584,239.205 200.279,239.894 201.540 C 240.208 202.114,240.785 203.146,241.176 203.833 C 241.567 204.521,242.122 205.533,242.409 206.083 C 242.696 206.633,243.209 207.516,243.549 208.045 C 243.889 208.574,244.167 209.076,244.167 209.160 C 244.167 209.244,244.571 209.904,245.066 210.626 C 245.560 211.348,246.473 212.871,247.093 214.011 C 247.714 215.151,248.556 216.683,248.965 217.417 C 249.375 218.150,249.894 219.120,250.120 219.573 C 250.346 220.025,250.975 221.060,251.517 221.872 C 252.490 223.329,254.056 226.197,254.500 227.333 C 254.625 227.654,254.941 228.166,255.202 228.470 C 255.647 228.989,256.180 229.833,257.167 231.583 C 257.935 232.947,259.205 235.076,259.750 235.917 C 261.410 238.475,261.894 240.112,261.170 240.722 L 260.643 241.165 242.946 241.081 C 217.962 240.961,220.032 241.110,219.610 239.402 C 219.457 238.782,219.232 238.157,219.109 238.012 C 217.846 236.526,213.611 231.771,212.498 230.589 C 211.717 229.761,210.565 228.500,209.937 227.788 C 208.478 226.131,207.365 225.638,207.320 226.628 C 207.312 226.804,207.274 226.835,207.223 226.707 C 207.084 226.363,206.833 226.652,206.833 227.156 C 206.833 227.611,207.184 228.094,207.375 227.903 C 207.427 227.851,207.521 227.969,207.583 228.165 C 207.645 228.362,208.384 229.286,209.225 230.220 C 210.067 231.153,210.973 232.217,211.240 232.583 C 211.507 232.950,212.827 234.375,214.173 235.750 C 217.542 239.191,218.533 240.633,217.542 240.651 C 217.381 240.654,216.725 240.740,216.083 240.842 C 215.114 240.996,212.526 240.994,208.333 240.835 C 208.196 240.830,206.771 240.900,205.167 240.990 C 201.046 241.223,201.173 241.329,201.155 237.633 C 201.140 234.406,200.904 229.317,200.753 228.958 C 200.588 228.564,200.294 228.591,199.369 229.083 C 198.938 229.313,198.489 229.500,198.370 229.500 C 198.216 229.500,198.200 229.583,198.313 229.795 C 198.400 229.958,198.518 232.190,198.576 234.757 C 198.725 241.332,198.868 241.083,194.925 241.083 C 192.708 241.083,192.161 241.035,191.816 240.809 C 191.560 240.641,191.303 240.587,191.155 240.670 C 190.247 241.178,183.555 241.305,182.656 240.831 C 181.589 240.268,181.697 240.066,184.691 237.000 C 186.168 235.487,187.511 234.032,187.677 233.765 C 187.843 233.499,188.570 232.674,189.293 231.932 C 193.543 227.572,194.260 226.167,192.232 226.167 C 191.631 226.167,189.105 228.567,186.898 231.235 C 186.450 231.776,185.478 232.864,184.738 233.651 C 182.132 236.423,180.500 238.326,180.475 238.620 C 180.461 238.783,180.442 239.252,180.433 239.662 C 180.403 241.013,182.038 240.917,159.250 240.917 C 143.179 240.917,139.008 240.873,138.710 240.704 C 137.876 240.227,138.044 239.628,139.745 237.000 C 141.025 235.022,141.557 234.102,142.594 232.069 C 143.159 230.962,144.075 229.379,144.631 228.553 C 145.186 227.727,145.923 226.496,146.268 225.817 C 146.613 225.139,147.136 224.205,147.431 223.743 C 147.725 223.280,148.593 221.676,149.358 220.177 C 150.124 218.679,151.033 217.132,151.378 216.739 C 151.724 216.346,152.125 215.738,152.270 215.387 C 152.415 215.037,152.653 214.615,152.799 214.451 C 153.149 214.058,154.152 212.284,155.081 210.417 C 155.818 208.936,156.300 208.105,157.901 205.553 C 158.350 204.836,159.033 203.675,159.419 202.972 C 159.805 202.270,160.281 201.491,160.477 201.242 C 160.673 200.992,160.833 200.683,160.833 200.554 C 160.833 200.232,161.434 199.068,162.066 198.167 C 162.817 197.095,164.000 195.094,164.000 194.894 C 164.000 194.801,164.266 194.356,164.592 193.904 C 164.918 193.453,165.295 192.858,165.430 192.583 C 165.565 192.308,165.938 191.671,166.259 191.167 C 166.580 190.662,166.915 189.980,167.004 189.650 C 167.093 189.320,167.350 188.795,167.576 188.484 C 167.801 188.172,168.096 187.677,168.230 187.384 C 168.365 187.091,168.781 186.447,169.155 185.952 C 169.528 185.457,170.199 184.336,170.645 183.460 C 171.091 182.584,171.606 181.706,171.789 181.509 C 171.972 181.312,172.237 180.911,172.376 180.617 C 173.992 177.220,174.566 176.176,175.923 174.167 C 176.790 172.882,177.500 171.771,177.500 171.698 C 177.500 171.626,177.796 171.110,178.159 170.553 C 178.521 169.995,178.869 169.324,178.933 169.061 C 178.997 168.798,179.284 168.208,179.571 167.750 C 179.858 167.292,180.233 166.654,180.404 166.333 C 180.575 166.012,180.845 165.600,181.005 165.417 C 181.165 165.233,181.463 164.746,181.668 164.333 C 182.067 163.531,182.632 162.564,184.253 159.917 C 184.814 159.000,185.554 157.650,185.896 156.917 C 186.239 156.183,186.805 155.133,187.154 154.583 C 187.849 153.488,188.408 152.530,189.096 151.250 C 189.342 150.792,189.746 150.154,189.994 149.833 C 190.598 149.053,192.069 146.399,192.313 145.651 C 192.421 145.321,192.743 144.683,193.030 144.234 C 193.925 142.829,195.000 140.978,195.000 140.842 C 195.000 140.771,195.230 140.423,195.512 140.068 C 195.794 139.714,196.359 138.822,196.769 138.087 C 197.178 137.352,197.581 136.637,197.663 136.500 C 197.746 136.362,197.853 136.058,197.902 135.823 C 198.045 135.134,198.710 134.283,199.422 133.880 C 200.261 133.405,200.278 133.406,200.814 133.979 M161.759 138.037 C 161.169 138.879,161.995 140.166,165.587 144.000 C 166.059 144.504,166.786 145.404,167.202 146.000 C 167.618 146.596,168.456 147.619,169.063 148.275 C 170.222 149.526,170.354 149.892,169.897 150.589 L 169.628 151.000 165.661 151.000 L 161.694 151.000 161.361 150.458 C 161.178 150.160,160.904 149.429,160.752 148.833 C 160.181 146.592,158.444 145.323,156.523 145.745 C 155.969 145.867,155.167 146.426,155.167 146.690 C 155.167 146.782,154.923 147.208,154.625 147.637 C 153.480 149.286,153.763 152.294,155.127 152.972 C 156.248 153.529,167.292 153.903,168.227 153.416 C 168.490 153.279,169.021 153.167,169.407 153.167 C 169.951 153.167,170.199 153.068,170.513 152.729 C 171.353 151.817,173.167 151.771,173.167 152.661 C 173.167 152.836,174.693 153.333,175.230 153.333 C 176.760 153.333,177.337 150.854,175.869 150.590 C 174.566 150.356,172.620 148.744,170.237 145.925 C 166.188 141.137,166.104 141.035,165.549 140.301 C 165.293 139.962,164.876 139.524,164.622 139.328 C 164.368 139.131,164.049 138.756,163.913 138.493 C 163.747 138.173,163.461 137.958,163.041 137.842 C 162.169 137.600,162.053 137.617,161.759 138.037 M244.417 138.500 C 244.360 138.592,244.374 138.672,244.448 138.679 C 244.523 138.687,244.283 138.782,243.917 138.892 C 242.609 139.284,243.122 141.171,244.534 141.164 C 245.400 141.160,245.833 140.662,245.833 139.670 C 245.833 138.854,244.751 137.960,244.417 138.500 M245.282 139.958 C 245.240 140.119,245.205 139.987,245.205 139.667 C 245.205 139.346,245.240 139.215,245.282 139.375 C 245.323 139.535,245.323 139.798,245.282 139.958 M146.252 140.195 C 145.521 140.770,144.995 142.604,145.476 142.902 C 145.609 142.984,145.859 144.350,146.088 146.250 C 146.317 148.140,146.347 150.677,146.159 152.122 C 145.851 154.479,146.179 154.823,148.089 154.149 C 148.984 153.833,149.193 153.817,150.172 153.991 C 151.441 154.216,151.668 154.158,152.050 153.511 C 152.364 152.979,152.411 152.766,152.182 152.907 C 152.099 152.958,152.072 152.844,152.122 152.653 C 152.191 152.389,152.247 152.358,152.354 152.528 C 152.593 152.905,152.514 152.511,152.247 151.994 C 151.960 151.439,151.762 151.378,149.945 151.283 C 148.117 151.188,147.771 150.848,147.856 149.228 C 147.956 147.340,147.844 142.421,147.675 141.228 C 147.470 139.776,147.113 139.517,146.252 140.195 M236.429 141.390 C 235.782 141.585,235.714 141.657,234.229 143.721 C 232.852 145.635,234.277 148.831,236.632 149.110 C 238.915 149.381,242.285 145.977,241.194 144.502 C 240.996 144.233,240.833 143.946,240.833 143.864 C 240.833 143.488,239.614 142.175,238.967 141.855 C 238.573 141.660,238.325 141.495,238.417 141.488 C 238.508 141.482,238.433 141.412,238.250 141.333 C 237.794 141.137,237.206 141.155,236.429 141.390 M251.417 141.901 C 250.930 142.116,249.646 143.410,248.532 144.808 C 247.842 145.674,247.691 145.668,247.133 144.747 C 246.070 142.995,244.881 142.887,242.880 144.362 C 242.078 144.953,242.016 145.047,242.100 145.544 C 242.276 146.590,242.709 147.529,243.366 148.288 L 244.030 149.055 243.916 150.346 C 243.672 153.098,245.746 152.088,247.144 148.776 C 247.670 147.529,247.801 147.345,247.967 147.613 C 248.031 147.715,248.660 148.102,249.365 148.473 L 250.647 149.148 259.158 149.139 C 268.677 149.128,268.500 149.150,268.500 147.980 C 268.500 146.197,266.514 145.202,265.163 146.308 C 263.888 147.351,263.302 147.338,261.985 146.237 C 260.932 145.358,259.986 145.412,258.869 146.417 C 257.357 147.775,256.193 147.520,255.833 145.750 C 255.181 142.545,253.424 141.014,251.417 141.901 M238.043 144.512 C 238.214 144.723,238.397 145.108,238.449 145.368 C 238.501 145.628,238.608 145.881,238.688 145.930 C 238.768 145.979,238.833 146.095,238.833 146.186 C 238.833 146.278,238.758 146.307,238.667 146.250 C 238.575 146.193,238.500 146.300,238.500 146.487 C 238.500 147.027,237.811 147.095,236.908 146.644 C 235.426 145.904,234.882 144.747,235.792 144.270 C 236.474 143.912,237.661 144.040,238.043 144.512 M252.797 144.427 C 253.707 145.064,253.864 145.995,253.179 146.679 C 252.355 147.504,251.370 147.158,250.491 145.735 C 249.841 144.684,251.678 143.643,252.797 144.427 M135.417 145.598 C 134.848 145.936,134.205 146.492,133.925 146.887 C 133.655 147.270,133.336 147.643,133.217 147.717 C 133.098 147.790,133.001 147.940,133.003 148.050 C 133.004 148.172,133.068 148.153,133.167 148.000 C 133.280 147.825,133.329 147.814,133.331 147.964 C 133.332 148.081,133.224 148.219,133.091 148.270 C 132.702 148.419,132.600 149.685,132.894 150.692 C 133.525 152.848,135.721 154.075,137.333 153.173 C 137.654 152.994,138.045 152.798,138.203 152.739 C 138.360 152.679,138.539 152.470,138.599 152.274 C 138.660 152.077,139.019 151.495,139.396 150.979 C 139.774 150.464,140.214 149.802,140.374 149.510 C 141.064 148.244,142.333 149.555,142.357 151.559 C 142.371 152.739,142.548 152.756,143.561 151.674 C 144.495 150.675,144.538 150.246,143.843 148.879 C 143.574 148.349,143.280 147.587,143.190 147.187 C 142.953 146.132,142.830 146.060,141.707 146.320 C 139.779 146.767,139.561 146.755,138.886 146.162 C 137.473 144.921,136.754 144.804,135.417 145.598 M137.375 148.967 C 137.923 149.480,137.949 149.808,137.488 150.394 C 136.733 151.354,135.345 150.521,135.579 149.250 C 135.762 148.259,136.496 148.143,137.375 148.967 M158.069 148.846 C 158.626 149.509,158.614 150.034,158.025 150.693 L 157.550 151.224 156.497 150.646 C 155.132 149.897,154.971 149.646,155.496 149.087 C 156.289 148.243,157.468 148.133,158.069 148.846 M253.005 154.530 C 252.571 155.243,252.579 155.586,253.037 155.907 C 253.925 156.529,254.513 155.909,254.134 154.750 C 253.852 153.889,253.444 153.810,253.005 154.530 M199.460 167.451 C 199.668 167.491,199.968 167.490,200.127 167.448 C 200.286 167.406,200.117 167.374,199.750 167.375 C 199.383 167.377,199.253 167.411,199.460 167.451 M195.138 168.254 C 193.245 168.512,191.562 168.921,191.074 169.241 C 190.884 169.366,190.209 169.628,189.576 169.823 C 188.943 170.019,188.273 170.316,188.088 170.483 C 187.508 171.004,184.968 172.667,184.751 172.667 C 183.590 172.667,183.181 175.445,184.230 176.209 C 184.489 176.398,184.838 176.872,185.005 177.261 C 185.188 177.689,185.491 178.059,185.769 178.193 C 186.048 178.329,186.279 178.613,186.358 178.917 C 186.430 179.192,186.741 179.642,187.050 179.917 C 187.631 180.434,188.916 182.187,189.389 183.109 C 189.537 183.398,189.918 183.909,190.235 184.246 C 190.553 184.582,190.859 185.072,190.917 185.334 C 191.162 186.449,192.000 186.318,192.000 185.165 C 192.000 184.716,191.827 184.287,191.393 183.655 C 190.373 182.172,190.460 181.094,191.615 180.899 C 192.187 180.803,193.226 180.402,194.425 179.815 C 195.767 179.158,195.767 179.158,196.495 179.415 C 198.345 180.068,198.535 179.369,198.011 173.839 C 197.874 172.395,197.964 170.665,198.263 168.981 C 198.436 168.005,197.892 167.879,195.138 168.254 M201.393 168.418 C 201.340 168.556,201.419 168.926,201.568 169.240 C 201.855 169.847,201.861 169.691,201.325 176.001 C 201.124 178.373,201.302 179.405,201.918 179.430 C 204.199 179.522,206.130 179.972,206.961 180.606 C 207.405 180.944,207.788 181.080,208.379 181.107 C 209.560 181.161,210.077 181.786,209.403 182.345 C 209.258 182.465,208.927 182.985,208.667 183.500 C 208.407 184.015,208.063 184.545,207.904 184.677 C 206.548 185.799,206.694 189.320,208.134 190.229 C 208.496 190.458,209.228 191.138,209.759 191.739 C 210.882 193.010,210.776 192.975,211.578 192.338 C 212.175 191.863,212.221 191.853,212.692 192.097 L 213.184 192.351 213.134 193.836 C 213.069 195.752,213.354 196.196,214.114 195.364 C 214.596 194.837,215.728 194.333,216.433 194.333 C 216.812 194.333,217.145 195.073,217.365 196.399 C 217.463 196.994,217.891 197.083,218.723 196.680 C 220.114 196.006,220.662 196.641,219.631 197.733 C 218.005 199.458,218.647 200.956,220.490 199.737 C 222.090 198.678,222.603 200.829,221.053 202.099 C 219.640 203.257,220.231 203.628,222.891 203.254 C 224.203 203.070,224.449 203.595,223.726 205.033 C 223.199 206.083,223.623 206.457,224.992 206.150 C 225.704 205.990,225.773 206.007,226.125 206.416 C 226.867 207.279,226.304 208.008,224.712 208.247 C 223.129 208.484,222.775 209.512,223.775 210.964 C 225.681 213.732,224.599 214.320,217.583 214.328 C 214.210 214.332,213.502 214.205,213.004 213.506 C 212.815 213.241,212.401 212.863,212.083 212.666 C 211.765 212.470,211.377 212.093,211.220 211.828 C 211.064 211.564,210.736 211.265,210.492 211.163 C 210.247 211.062,209.891 210.767,209.699 210.508 C 209.501 210.241,209.025 209.926,208.596 209.780 C 208.181 209.639,207.596 209.340,207.296 209.117 C 206.146 208.261,205.501 208.373,204.009 209.686 C 202.735 210.808,202.618 211.215,202.758 214.049 C 202.921 217.359,202.468 219.052,200.959 220.771 C 200.252 221.576,198.278 221.342,198.085 220.430 C 197.828 219.210,197.651 217.287,197.556 214.663 C 197.462 212.078,197.407 211.629,197.166 211.499 C 197.011 211.417,196.757 211.016,196.602 210.609 C 196.009 209.056,193.911 208.116,192.816 208.912 C 192.505 209.139,191.866 209.505,191.396 209.727 C 190.927 209.948,190.490 210.214,190.427 210.317 C 190.363 210.421,189.772 210.872,189.114 211.320 C 188.455 211.767,187.579 212.485,187.167 212.914 C 185.823 214.312,185.536 214.393,182.067 214.359 C 175.838 214.298,175.167 214.112,175.167 212.452 C 175.167 211.667,175.219 211.557,175.901 210.923 C 176.636 210.239,176.723 210.067,176.686 209.387 C 176.655 208.807,176.263 208.555,174.936 208.260 C 173.489 207.938,173.244 207.712,173.266 206.716 C 173.288 205.736,173.526 205.512,174.152 205.882 C 175.357 206.593,177.029 206.077,176.174 205.257 C 175.088 204.216,175.914 202.536,177.241 203.090 C 177.937 203.381,179.356 203.411,179.627 203.140 C 179.773 202.993,179.609 202.719,178.947 202.004 C 177.207 200.125,177.339 199.120,179.254 199.668 C 181.206 200.226,181.416 200.141,180.845 199.022 C 180.025 197.415,180.508 196.124,181.606 196.988 C 182.494 197.686,183.000 197.341,183.000 196.039 C 183.000 194.426,183.483 194.146,184.937 194.919 C 186.294 195.641,186.725 195.290,186.581 193.583 C 186.439 191.912,186.668 191.637,187.619 192.337 C 188.520 193.000,189.278 192.907,190.058 192.038 C 190.347 191.717,190.965 191.033,191.431 190.518 C 192.665 189.158,193.464 187.305,192.534 187.962 C 192.378 188.072,192.025 188.284,191.750 188.433 C 191.475 188.582,190.987 188.954,190.667 189.260 C 189.825 190.063,188.963 190.365,187.250 190.457 C 185.743 190.537,185.000 190.794,185.000 191.236 C 185.000 191.570,184.080 192.500,183.751 192.500 C 183.595 192.500,183.247 192.658,182.976 192.850 C 182.594 193.123,182.350 193.176,181.884 193.088 C 181.316 192.982,181.234 193.028,180.347 193.946 C 179.831 194.480,179.148 195.068,178.830 195.253 C 178.347 195.533,178.188 195.781,177.882 196.733 C 177.576 197.686,177.362 198.019,176.603 198.730 C 176.010 199.286,175.547 199.915,175.275 200.535 C 175.029 201.096,174.546 201.780,174.098 202.202 C 173.516 202.749,173.267 203.149,173.039 203.910 C 172.748 204.877,172.716 204.913,171.858 205.244 C 170.911 205.608,170.497 205.926,169.810 206.814 L 169.373 207.378 167.895 207.207 L 166.417 207.037 166.002 207.560 C 164.798 209.080,164.432 209.333,163.442 209.333 C 162.483 209.333,161.524 209.664,160.894 210.213 C 160.698 210.383,160.023 210.732,159.394 210.989 L 158.250 211.455 158.261 212.232 C 158.278 213.509,158.321 213.525,162.209 213.677 C 164.081 213.750,166.243 213.897,167.015 214.002 C 167.786 214.108,169.129 214.257,170.000 214.333 C 170.871 214.409,172.296 214.586,173.167 214.725 C 174.037 214.864,176.287 215.097,178.167 215.243 C 180.046 215.390,181.986 215.589,182.478 215.687 C 184.229 216.035,186.587 215.413,187.748 214.296 C 188.024 214.030,188.908 213.175,189.712 212.395 C 191.278 210.877,192.147 210.379,193.512 210.217 L 194.358 210.117 195.270 211.082 C 196.921 212.828,197.340 215.092,196.292 216.606 C 195.642 217.544,195.670 218.390,196.386 219.440 C 196.690 219.885,196.987 220.379,197.046 220.537 C 197.104 220.694,197.344 220.871,197.578 220.930 C 197.858 221.001,198.036 221.187,198.101 221.477 C 198.156 221.719,198.260 222.179,198.333 222.500 C 198.407 222.821,198.468 223.196,198.469 223.333 C 198.483 224.858,198.724 225.353,199.692 225.846 L 200.324 226.169 200.558 225.709 C 200.687 225.457,200.879 224.845,200.983 224.349 C 201.256 223.062,202.025 221.569,202.995 220.444 C 203.958 219.328,204.070 219.013,203.935 217.798 C 203.413 213.126,203.724 211.590,205.429 210.416 C 206.282 209.828,206.360 209.805,206.642 210.061 C 206.808 210.212,207.313 210.460,207.764 210.614 C 208.428 210.840,208.973 211.281,210.632 212.936 C 213.204 215.500,212.977 215.417,217.417 215.414 C 220.962 215.412,224.155 215.118,231.333 214.135 C 232.822 213.931,235.365 213.739,237.333 213.680 C 241.179 213.567,241.396 213.507,241.671 212.484 C 241.865 211.764,241.698 211.333,241.224 211.333 C 240.907 211.333,239.331 210.536,238.917 210.165 C 238.536 209.825,237.174 209.333,236.611 209.333 C 236.194 209.333,235.325 208.791,233.987 207.697 C 233.320 207.151,233.024 207.005,232.762 207.095 C 232.572 207.160,231.990 207.247,231.469 207.288 L 230.522 207.362 229.432 206.348 C 228.766 205.728,228.194 205.332,227.963 205.331 C 227.019 205.325,226.879 205.186,226.568 203.943 C 226.311 202.913,226.161 202.644,225.471 201.979 C 225.032 201.555,224.527 200.870,224.350 200.456 C 224.173 200.043,223.768 199.506,223.449 199.263 C 222.673 198.672,222.046 197.690,221.764 196.626 C 221.407 195.283,221.365 195.224,220.544 194.911 C 220.092 194.738,219.406 194.247,218.873 193.714 C 218.298 193.138,217.878 192.844,217.719 192.905 C 216.792 193.261,216.742 193.238,215.309 191.745 L 213.918 190.296 212.917 190.396 C 209.336 190.756,206.718 187.296,209.085 185.332 C 209.236 185.207,209.549 184.725,209.781 184.260 C 210.014 183.796,210.339 183.267,210.504 183.083 C 210.669 182.900,210.924 182.337,211.069 181.833 C 211.289 181.069,211.464 180.819,212.119 180.333 C 213.139 179.576,215.244 177.126,215.699 176.167 C 215.895 175.754,216.185 175.228,216.344 174.997 C 216.845 174.272,216.212 173.236,214.833 172.524 C 214.237 172.217,213.161 171.553,212.441 171.050 C 211.703 170.534,210.625 169.963,209.970 169.740 C 209.330 169.522,208.560 169.192,208.259 169.005 C 207.906 168.788,207.420 168.666,206.897 168.664 C 206.449 168.663,205.633 168.553,205.083 168.420 C 203.696 168.085,201.521 168.084,201.393 168.418 M196.233 170.810 C 196.422 171.693,196.136 172.487,195.746 172.163 C 195.493 171.953,195.389 170.333,195.615 170.108 C 195.854 169.868,196.089 170.135,196.233 170.810 M208.241 171.037 C 208.647 171.618,208.550 172.272,207.918 173.211 C 207.597 173.687,207.178 174.549,206.986 175.127 C 206.732 175.889,206.479 176.301,206.063 176.630 C 205.747 176.879,205.344 177.327,205.167 177.625 C 204.370 178.964,204.176 176.587,204.928 174.705 C 205.164 174.117,205.315 173.525,205.264 173.392 C 205.204 173.237,205.240 173.192,205.364 173.269 C 205.494 173.349,205.521 173.295,205.447 173.103 C 205.368 172.896,205.635 172.522,206.418 171.742 C 207.593 170.573,207.847 170.475,208.241 171.037 M193.589 172.208 C 193.813 172.690,193.997 173.192,193.998 173.324 C 193.999 173.457,194.189 173.838,194.420 174.172 C 195.411 175.602,195.315 179.136,194.296 178.745 C 194.143 178.686,193.896 178.288,193.748 177.860 C 193.601 177.433,193.299 176.746,193.079 176.333 C 192.298 174.870,192.202 174.568,192.084 173.205 C 191.900 171.080,192.790 170.491,193.589 172.208 M190.120 172.764 C 190.579 173.058,190.768 173.743,190.692 174.835 C 190.630 175.733,190.195 176.227,189.849 175.793 C 189.756 175.678,189.265 175.079,188.757 174.463 C 187.774 173.272,187.732 173.168,188.015 172.639 C 188.224 172.249,189.429 172.320,190.120 172.764 M211.292 172.835 C 211.614 173.451,211.413 174.127,210.666 174.937 C 210.300 175.334,210.000 175.768,210.000 175.900 C 210.000 176.364,209.154 177.197,208.898 176.984 C 208.427 176.594,208.596 174.866,209.157 174.342 C 209.427 174.090,209.696 173.693,209.754 173.459 C 210.017 172.411,210.886 172.058,211.292 172.835 M214.292 174.157 C 214.907 174.671,214.679 175.821,213.759 176.833 C 213.468 177.154,213.024 177.698,212.773 178.042 C 212.522 178.385,212.175 178.667,212.001 178.667 C 211.633 178.667,211.485 178.867,211.345 179.553 C 211.203 180.246,210.725 180.522,210.407 180.093 C 210.060 179.626,210.110 179.141,210.571 178.516 C 210.794 178.214,211.028 177.656,211.091 177.275 C 211.239 176.388,211.657 175.333,211.861 175.333 C 211.948 175.333,212.327 174.996,212.702 174.583 C 213.450 173.761,213.728 173.687,214.292 174.157 M186.659 174.246 C 187.168 174.509,187.833 175.445,187.833 175.898 C 187.833 176.050,188.122 176.491,188.474 176.879 C 189.118 177.586,189.500 178.405,189.500 179.077 C 189.500 179.284,189.713 179.594,190.000 179.807 C 190.500 180.176,190.734 181.167,190.322 181.167 C 189.913 181.167,189.500 180.796,189.500 180.429 C 189.500 180.042,189.224 179.833,188.714 179.833 C 188.250 179.833,186.301 177.666,185.961 176.772 C 185.788 176.316,185.501 175.759,185.323 175.533 C 184.491 174.475,185.403 173.596,186.659 174.246 M191.793 176.668 C 191.877 177.789,191.276 178.001,191.073 176.922 C 190.949 176.262,191.085 175.960,191.474 176.034 C 191.657 176.069,191.765 176.281,191.793 176.668 M202.958 179.013 C 202.760 179.129,202.573 179.129,202.375 179.013 C 202.137 178.875,202.191 178.843,202.667 178.843 C 203.143 178.843,203.196 178.875,202.958 179.013 M187.903 223.261 C 187.621 223.400,186.796 223.982,186.070 224.554 C 185.344 225.125,184.412 225.800,184.000 226.053 C 183.588 226.305,182.688 226.917,182.000 227.411 C 181.313 227.906,180.225 228.663,179.583 229.094 C 173.573 233.131,172.956 233.655,173.031 234.672 C 173.127 235.980,174.460 235.775,176.433 234.147 C 176.809 233.837,177.475 233.321,177.914 233.000 C 178.352 232.679,179.244 232.024,179.897 231.543 C 180.549 231.063,181.458 230.438,181.917 230.155 C 187.133 226.933,189.833 224.703,189.833 223.616 C 189.833 223.197,188.522 222.956,187.903 223.261 M210.441 223.516 C 209.790 224.446,210.590 225.221,215.589 228.500 C 217.125 229.508,218.393 230.388,219.083 230.926 C 219.450 231.211,220.096 231.646,220.518 231.891 C 220.941 232.137,221.841 232.827,222.518 233.425 C 224.827 235.463,226.794 236.230,227.171 235.239 C 227.434 234.547,227.361 234.035,226.958 233.751 C 226.752 233.606,225.946 233.045,225.167 232.506 C 224.387 231.966,223.499 231.318,223.191 231.064 C 222.209 230.255,220.773 229.284,219.995 228.904 C 219.579 228.700,218.931 228.283,218.554 227.975 C 218.177 227.668,217.317 227.021,216.643 226.538 C 215.968 226.055,214.789 225.202,214.021 224.643 C 211.817 223.036,210.965 222.768,210.441 223.516 M195.097 229.362 C 194.466 230.100,194.392 230.241,192.925 233.500 C 192.409 234.646,191.726 236.108,191.408 236.750 C 190.778 238.019,190.677 238.884,191.104 239.356 C 191.690 240.004,192.961 238.754,193.753 236.750 C 194.007 236.108,194.348 235.393,194.511 235.159 C 195.421 233.857,197.000 230.330,197.000 229.599 C 197.000 229.260,196.276 228.667,195.862 228.667 C 195.769 228.667,195.425 228.980,195.097 229.362 M203.033 229.033 C 202.720 229.347,202.794 229.782,203.334 230.803 C 204.014 232.091,204.897 234.041,205.346 235.250 C 205.878 236.681,207.328 239.171,207.738 239.358 C 208.196 239.567,209.393 239.184,209.465 238.807 C 209.520 238.525,208.032 235.261,207.503 234.500 C 207.343 234.271,207.121 233.801,207.010 233.457 C 206.898 233.112,206.714 232.737,206.601 232.623 C 206.159 232.180,205.500 230.864,205.500 230.427 C 205.500 229.386,203.699 228.368,203.033 229.033 M224.586 257.882 C 223.227 258.651,223.487 259.779,225.063 259.957 C 226.325 260.099,226.740 259.253,226.002 258.042 C 225.612 257.402,225.463 257.385,224.586 257.882 M136.250 258.415 C 136.158 258.446,135.885 258.514,135.643 258.567 C 134.901 258.730,132.506 260.785,132.153 261.562 C 131.100 263.882,133.245 266.399,136.580 266.756 C 138.384 266.949,140.740 265.334,141.743 263.218 C 142.829 260.927,144.802 261.948,144.965 264.884 C 145.087 267.081,143.854 266.851,155.217 266.797 L 165.083 266.750 166.076 266.250 C 168.500 265.029,168.226 262.566,165.504 261.102 C 160.490 258.405,155.669 257.621,154.377 259.292 C 154.263 259.439,154.126 259.514,154.071 259.460 C 154.017 259.406,154.128 259.205,154.319 259.014 C 154.740 258.593,154.510 258.550,154.019 258.958 C 152.872 259.910,153.497 260.812,155.290 260.794 C 158.517 260.761,163.833 262.482,163.833 263.559 C 163.833 264.404,163.669 264.421,155.773 264.360 C 147.336 264.295,148.129 264.468,147.319 262.523 C 145.870 259.042,145.210 258.607,143.257 259.846 C 142.345 260.424,141.452 260.264,140.391 259.333 C 139.545 258.590,137.250 258.082,136.250 258.415 M234.202 258.488 C 233.402 258.691,233.000 259.124,233.000 259.779 C 233.000 260.459,233.143 260.530,235.333 260.924 C 237.504 261.314,238.408 261.684,239.625 262.683 C 241.568 264.278,241.273 264.358,233.609 264.298 L 227.558 264.250 226.840 263.750 C 225.495 262.814,225.457 262.804,224.587 263.126 C 223.582 263.498,223.463 263.744,223.449 265.484 C 223.425 268.530,224.599 269.396,226.250 267.552 L 226.917 266.807 242.523 266.825 L 258.129 266.843 259.072 265.981 C 260.513 264.664,260.905 263.457,259.994 263.139 C 259.667 263.025,259.257 262.623,258.836 262.004 C 258.248 261.138,257.319 260.187,257.029 260.154 C 256.967 260.147,256.767 260.099,256.583 260.047 C 255.932 259.862,254.751 259.994,253.939 260.344 C 252.950 260.769,252.421 260.698,251.318 259.990 C 249.990 259.138,248.634 259.128,247.643 259.962 C 246.917 260.573,245.833 262.286,245.833 262.821 C 245.833 263.062,245.605 263.535,245.323 263.877 L 244.812 264.496 244.177 264.172 C 243.571 263.863,242.667 262.963,242.667 262.669 C 242.667 262.285,241.224 260.786,240.198 260.104 C 238.189 258.768,235.718 258.103,234.202 258.488 M263.917 258.567 C 261.586 259.594,260.553 263.894,262.259 265.472 C 264.364 267.421,265.790 267.068,267.751 264.115 C 269.496 261.487,266.646 257.364,263.917 258.567 M216.841 259.139 C 214.539 261.558,214.441 264.079,216.575 265.958 C 219.194 268.264,223.470 263.621,221.626 260.474 C 220.495 258.544,218.055 257.863,216.841 259.139 M137.662 261.382 C 138.685 261.887,139.364 263.137,138.981 263.810 C 138.410 264.815,136.190 264.067,135.417 262.610 L 135.083 261.982 135.628 261.491 C 136.273 260.909,136.662 260.888,137.662 261.382 M219.167 261.652 C 220.276 262.428,220.443 263.813,219.469 264.152 C 218.418 264.519,217.626 263.989,217.177 262.619 C 216.773 261.387,217.962 260.809,219.167 261.652 M265.872 261.824 C 266.664 262.707,266.691 263.844,265.928 264.192 C 264.864 264.677,262.970 262.771,263.392 261.641 C 263.664 260.914,265.154 261.024,265.872 261.824 M250.088 262.003 C 251.634 262.958,251.468 264.333,249.808 264.333 C 248.718 264.333,248.333 263.950,248.333 262.867 C 248.333 261.630,248.975 261.315,250.088 262.003 M256.458 262.937 C 257.457 263.699,256.884 264.582,255.468 264.463 C 254.250 264.361,253.948 263.675,254.673 262.657 C 255.062 262.111,255.456 262.173,256.458 262.937 " stroke="none" fill="#0a1187" fill-rule="evenodd"></path>
  </g>
</svg>